<svg width="100" height="100" viewBox="0 0 100 100" fill="none" xmlns="http://www.w3.org/2000/svg">
<g clip-path="url(#clip0_480_446)">
<path fill-rule="evenodd" clip-rule="evenodd" d="M62.3505 13.4962L58.9616 12.5671C58.5254 12.4217 58.0957 12.4674 57.6779 12.704C57.2587 12.9408 56.9756 13.2962 56.8302 13.7697L36.4473 84.3171C36.3019 84.7908 36.3474 85.2375 36.5842 85.6559C36.8209 86.0751 37.1756 86.3574 37.6499 86.5028L41.0378 87.4323C41.475 87.5789 41.9032 87.5329 42.3221 87.296C42.7413 87.0581 43.0238 86.7038 43.1691 86.231L63.5525 15.6825C63.6978 15.209 63.6526 14.7623 63.4154 14.3429C63.1785 13.9238 62.8242 13.6415 62.3505 13.4962ZM31.8042 27.2676C31.8042 26.7941 31.6218 26.3747 31.2576 26.0107L28.5249 23.2783C28.1607 22.914 27.7416 22.7314 27.268 22.7314C26.7945 22.7314 26.3752 22.9142 26.0111 23.2783L0.546635 48.7427C0.181829 49.107 0 49.5261 0 49.9996C0 50.4732 0.182403 50.8923 0.546635 51.2564L26.0109 76.7208C26.375 77.0856 26.7936 77.2671 27.2678 77.2671C27.7421 77.2671 28.1607 77.0851 28.5248 76.7208L31.2574 73.9899C31.6216 73.6259 31.804 73.2066 31.804 72.7325C31.804 72.2595 31.6216 71.8403 31.2574 71.4763L9.78183 49.9996L31.2576 28.5245C31.6224 28.1605 31.8042 27.7411 31.8042 27.2676ZM73.9885 23.2778L99.4536 48.7423C99.8178 49.1063 99.9998 49.5255 99.9998 49.9992C99.9998 50.4727 99.8178 50.8926 99.4536 51.2567L73.9885 76.721C73.6245 77.0852 73.2053 77.2672 72.7324 77.2672C72.2583 77.2672 71.8403 77.0858 71.4749 76.721L68.7434 73.9901C68.3792 73.626 68.1978 73.2069 68.1978 72.7326C68.1978 72.2598 68.3794 71.8405 68.7434 71.4764L90.2195 49.9996L68.7434 28.5238C68.3792 28.1598 68.1978 27.741 68.1978 27.2669C68.1978 26.7928 68.3794 26.3742 68.7434 26.01L71.4749 23.2778C71.8403 22.9137 72.2581 22.731 72.7324 22.731C73.2051 22.731 73.6245 22.9137 73.9885 23.2778Z" fill="url(#paint0_linear_480_446)"/>
</g>
<defs>
<linearGradient id="paint0_linear_480_446" x1="0" y1="12.4841" x2="111.566" y2="39.181" gradientUnits="userSpaceOnUse">
<stop stop-color="#FF8E47"/>
<stop offset="1" stop-color="#EE5252"/>
</linearGradient>
<clipPath id="clip0_480_446">
<rect width="99.9998" height="100" fill="white"/>
</clipPath>
</defs>
</svg>
